<?xml version="1.0" encoding="UTF-8"?>
<svg version="1.1" xmlns="http://www.w3.org/2000/svg" width="2000" height="2000">
<path d="M0 0 C2.7289427 -0.00693093 5.45783049 -0.01857951 8.18675232 -0.03116226 C87.65507022 -0.34716799 166.62801202 10.70420103 313.22666931 64.36791611 C314.21231873 64.83810165 315.19796814 65.3082872 316.21348572 65.79272079 C356.4204377 85.11455847 394.65597826 109.7169812 428.40635681 138.94604111 C431.04974834 141.21598951 433.74832245 143.38902725 436.47666931 145.55541611 C449.19650144 155.96089482 460.72634146 167.77532847 472.35166931 179.36791611 C472.89059814 179.90416611 473.42952698 180.44041611 473.98478699 180.99291611 C479.95193922 186.93753017 485.77454204 192.94088197 491.22666931 199.36791611 C492.24826586 200.53619514 493.27168631 201.70288196 494.29698181 202.86791611 C555.16247654 272.47499429 598.08471283 354.03500921 668.47666931 657.24291611 C668.55389221 658.10681961 668.63111511 658.97072311 668.7106781 659.86080551 C671.66721453 693.46421857 672.57106912 727.16312607 672.4874115 760.88183212 C672.47600979 765.50797286 672.48282673 770.13388345 672.49428844 774.76001644 C672.56481913 808.38562655 671.33222741 841.92470325 668.41416931 875.43041611 C668.3301889 876.41432327 668.2462085 877.39823044 668.15968323 878.41195297 C661.91978751 951.06830266 648.69563085 1022.94134956 626.22666931 1092.36791611 C626.00237244 1093.06143173 625.77807556 1093.75494736 625.54698181 1094.46947861 C600.50509251 1171.63343983 562.89742615 1245.29073098 504.65635681 1316.53979111 C502.3459202 1319.22910961 500.12584851 1321.97224107 497.91416931 1324.74291611 C492.58667979 1331.28811752 486.77666694 1337.36613291 480.98448181 1343.49682236 C478.77895227 1345.84448603 476.60141882 1348.21687 474.4261322 1350.59252548 C467.48854339 1358.16528511 460.45390477 1365.54422048 452.64463806 1372.23119736 C450.00310628 1374.56547504 447.44098528 1376.9722768 444.87730408 1379.39135361 C438.20878611 1385.68087485 431.43432677 1391.69466191 424.22666931 1397.36791611 C423.15090553 1398.22438187 422.07539704 1399.08116837 421.00010681 1399.93822861 C418.03597163 1402.29307405 415.05439978 1404.62450166 412.06260681 1406.94408798 C410.86536114 1407.87259021 409.66995489 1408.80347058 408.47666931 1409.73705673 C390.77212696 1423.54897091 371.76306511 1436.29035835 352.22666931 1447.36791611 C351.57069763 1447.7425499 350.91472595 1448.11718369 350.23887634 1448.50317001 C344.93598152 1451.52230944 339.59155241 1454.46057714 334.22666931 1457.36791611 C333.37637146 1457.83068954 332.52607361 1458.29346298 331.65000916 1458.77025986 C306.39207381 1472.44874548 280.25742792 1483.69642694 253.22666931 1493.36791611 C251.45549744 1494.00358505 251.45549744 1494.00358505 249.64854431 1494.65209579 C199.74171662 1512.37283346 147.38521055 1523.00627206 94.78916931 1528.61791611 C93.7209343 1528.7336145 93.7209343 1528.7336145 92.63111877 1528.85165024 C87.16899201 1529.43421678 81.7013273 1529.91940014 76.22666931 1530.36791611 C74.66073029 1530.4987207 74.66073029 1530.4987207 73.06315613 1530.63216782 C50.7920144 1532.43512264 28.59570839 1532.73122989 6.26215744 1532.68597412 C3.4355997 1532.68033416 0.60904796 1532.67751344 -2.21751404 1532.67489243 C-29.16472201 1532.63856223 -55.96202165 1532.322187 -82.77333069 1529.36791611 C-84.44829074 1529.18913589 -86.12325841 1529.01042693 -87.79823303 1528.83178329 C-121.84517888 1525.14481837 -155.50661523 1519.51743646 -188.77333069 1511.36791611 C-189.9873053 1511.07191513 -191.20127991 1510.77591415 -192.45204163 1510.47094345 C-249.20518235 1496.44556782 -304.94941254 1474.03509393 -354.77333069 1443.36791611 C-355.51180237 1442.91626083 -356.25027405 1442.46460556 -357.01112366 1441.99926376 C-379.72824959 1428.05736258 -401.33616625 1412.47879719 -421.77333069 1395.36791611 C-422.27252014 1394.95364365 -422.77170959 1394.53937119 -423.286026 1394.11254501 C-431.08371762 1387.64002963 -438.62289496 1380.93960585 -446.01502991 1374.00854111 C-447.87407516 1372.27391405 -449.74658153 1370.55467655 -451.62098694 1368.83666611 C-460.49644095 1360.66444365 -468.87935874 1352.15711286 -477.03016663 1343.2639122 C-478.69691349 1341.45103319 -480.37666595 1339.65142047 -482.06239319 1337.85619736 C-488.25731297 1331.24313256 -494.10251504 1324.44074153 -499.77333069 1317.36791611 C-500.43075256 1316.57900986 -501.08817444 1315.79010361 -501.76551819 1314.97729111 C-526.18058221 1285.67921428 -547.30972064 1253.70482816 -565.77333069 1220.36791611 C-566.31425354 1219.39966904 -566.85517639 1218.43142197 -567.41249084 1217.43383408 C-582.72532172 1189.94847308 -595.64253625 1161.50334041 -607.05775452 1132.20214462 C-607.73852998 1130.45712039 -608.42473083 1128.7142156 -609.11122131 1126.97143173 C-641.4062396 1044.57200719 -657.33046868 955.01292049 -667.0913887 769.75287247 C-667.08572916 766.56064936 -667.08292082 763.3684316 -667.08030701 760.17620468 C-667.04341596 729.15381454 -666.67625125 698.25339224 -664.02656555 667.32513046 C-663.76191692 664.23462895 -663.50738247 661.14338592 -663.25331116 658.05199814 C-655.78829752 568.51787832 -638.63856074 479.2137723 -587.06434631 353.10570908 C-585.79257667 350.40873012 -584.53918745 347.7038416 -583.28895569 344.99682236 C-566.13033669 308.08051806 -544.45438454 272.753056 -519.77333069 240.36791611 C-518.96338047 239.29373836 -518.15348473 238.21951954 -517.34364319 237.14525986 C-498.9740641 212.912267 -478.85525685 190.38762831 -457.39833069 168.86791611 C-456.88209137 168.34899796 -456.36585205 167.8300798 -455.83396912 167.29543686 C-449.99398473 161.4324563 -444.08172165 155.73098187 -437.77333069 150.36791611 C-436.58154473 149.3229561 -435.39142284 148.27609499 -434.20301819 147.22729111 C-425.93784037 139.98101319 -417.50250669 133.04596245 -408.77333069 126.36791611 C-408.05612854 125.81410263 -407.33892639 125.26028915 -406.59999084 124.68969345 C-380.2472679 104.37160463 -352.2028034 86.85453289 -322.77333069 71.36791611 C-321.78123596 70.84584579 -320.78914124 70.32377548 -319.76698303 69.78588486 C-280.78594292 49.43826462 -239.34213051 34.26682867 -196.77333069 23.36791611 C-196.10595886 23.19645065 -195.43858704 23.0249852 -194.75099182 22.84832382 C-158.74588867 13.63312966 -122.22902508 7.41057955 -85.26502991 3.62505722 C-82.89319454 3.38028595 -80.52273908 3.12474037 -78.15223694 2.86742783 C-52.17248463 0.11152433 -26.09645624 0.05554523 0 0 Z M-55.77333069 207.36791611 C-57.64239075 207.62532578 -57.64239075 207.62532578 -59.54920959 207.88793564 C-123.73792892 217.0274161 -186.15655341 242.03302557 -235.77333069 284.36791611 C-236.83408198 285.25516909 -237.89530458 286.14185882 -238.95692444 287.02807236 C-245.71508924 292.70586349 -252.26457097 298.5885192 -258.71083069 304.61791611 C-259.75714661 305.59160141 -259.75714661 305.59160141 -260.82460022 306.58495712 C-264.845504 310.37905304 -268.57422326 314.31366844 -272.17201233 318.51049423 C-274.38224465 321.07421545 -276.70587167 323.52617292 -279.02333069 325.99291611 C-284.54158295 331.95002225 -289.54250514 338.24627218 -294.47645569 344.69018173 C-295.64941432 346.20760864 -296.85044063 347.70323734 -298.05458069 349.19604111 C-313.18599408 368.16212776 -325.98585756 389.21337191 -337.77333069 410.36791611 C-338.22079651 411.16504013 -338.66826233 411.96216415 -339.12928772 412.78344345 C-379.23377882 484.73154658 -398.34523273 567.93064986 -412.77333069 712.36791611 C-412.81093506 713.06262009 -412.84853943 713.75732407 -412.88728333 714.47307968 C-413.3817855 723.76850535 -413.65116735 733.06059683 -413.77333069 742.36791611 C-413.78976624 743.60426804 -413.78976624 743.60426804 -413.80653381 744.86559677 C-414.94497766 836.32198097 -407.95661443 928.9260357 -375.77333069 1034.36791611 C-375.41271545 1035.4728038 -375.05210022 1036.5776915 -374.68055725 1037.71606064 C-354.65322004 1098.74275798 -323.38310982 1157.10313543 -280.77333069 1205.36791611 C-279.61317444 1206.69436142 -279.61317444 1206.69436142 -278.42958069 1208.04760361 C-272.56885664 1214.59455168 -266.4133328 1220.85396454 -260.22587585 1227.09060287 C-258.81606446 1228.51232141 -257.4102339 1229.93798399 -256.00453186 1231.36376572 C-249.90509681 1237.47083392 -243.52476663 1242.99754654 -236.77333069 1248.36791611 C-235.59950187 1249.3444845 -234.42842162 1250.32437815 -233.26161194 1251.30932236 C-178.65987457 1296.70584318 -108.95566382 1321.14137746 -38.77333069 1327.36791611 C-37.81894104 1327.46072861 -36.86455139 1327.55354111 -35.88124084 1327.64916611 C-23.58014065 1328.70489271 -11.23572293 1328.61169165 1.10166931 1328.61791611 C2.90412613 1328.61892822 2.90412613 1328.61892822 4.74299622 1328.61996078 C60.45146117 1328.57035396 116.88930864 1319.20458654 167.22666931 1294.36791611 C168.60269194 1293.70587662 169.97898922 1293.04440766 171.35557556 1292.38354111 C175.34870593 1290.44606883 179.29523654 1288.42737399 183.22666931 1286.36791611 C183.92969177 1286.00117783 184.63271423 1285.63443954 185.35704041 1285.25658798 C221.16001882 1266.41878674 253.31190368 1239.439839 280.22666931 1209.36791611 C281.39069275 1208.11108017 281.39069275 1208.11108017 282.57823181 1206.82885361 C288.8769658 1199.99595137 294.6045912 1192.75769675 300.22666931 1185.36791611 C300.76984802 1184.65458115 301.31302673 1183.94124619 301.87266541 1183.20629501 C334.69895619 1139.87859158 359.37399607 1091.60939984 377.22666931 1040.36791611 C377.62418396 1039.24063095 378.02169861 1038.11334579 378.43125916 1036.95190048 C406.99863223 955.14689975 417.4913855 866.44845398 417.4874115 772.2026329 C417.47602705 767.81270649 417.48281104 763.42302305 417.4942894 759.0331049 C417.56265574 728.14786884 416.54515387 697.30276117 413.47666931 666.55541611 C413.39430023 665.71001266 413.31193115 664.86460922 413.22706604 663.99358749 C404.67915329 576.99065382 383.40562524 490.77209112 247.98057556 291.50072861 C245.42499323 289.41620427 242.8299681 287.3922542 240.22666931 285.36791611 C238.34897383 283.76690537 236.47412886 282.16254738 234.60166931 280.55541611 C185.76462384 239.93101885 123.79280708 215.83785658 61.22666931 207.36791611 C60.13322205 207.21693466 59.03977478 207.06595322 57.91319275 206.91039658 C20.67902675 202.01727609 -18.58395479 202.17528427 -55.77333069 207.36791611 Z " fill="#000000" transform="translate(902.7733306884766,283.63208389282227)"/>
</svg>
